<svg xml:space="preserve" style="enable-background:new 0 0 256.5 253.117;" viewBox="0 0 256.5 253.117" height="253.117px" width="256.5px" y="0px" x="0px" xmlns:xlink="http://www.w3.org/1999/xlink" xmlns="http://www.w3.org/2000/svg" id="Layer_1" version="1.1">
<g id="Layer_1_1_">
	<path d="M253.479,119.326c0-40.701-33.074-73.693-73.871-73.693c-0.635,0-1.262,0.029-1.893,0.046
		c-12.881-21.591-36.498-36.067-63.514-36.067c-40.798,0-73.871,32.995-73.871,73.696c0,0.529,0.029,1.049,0.04,1.576
		C18.056,97.563,3,121.49,3,148.941c0,40.699,33.073,73.689,73.872,73.689c2.32,0,4.612-0.12,6.878-0.327
		c13.551,16.375,34.051,26.813,56.998,26.813c37.711,0,68.793-28.192,73.289-64.596
		C237.488,172.174,253.479,147.618,253.479,119.326z" style="fill:#D6F0FF;"></path>
	<g style="opacity:0.44;" id="Layer_2_4_">
		<path d="M46.145,44.78c-1.181,0-2.367-0.416-3.319-1.263c-2.064-1.834-2.25-4.995-0.416-7.059
			C57.376,19.617,77.008,8.438,99.181,4.129c18.1-3.518,36.786-2.086,54.037,4.141c2.597,0.938,3.942,3.804,3.005,6.401
			c-0.938,2.598-3.8,3.944-6.401,3.005c-15.551-5.615-32.403-6.904-48.732-3.731c-20.001,3.887-37.708,13.969-51.205,29.156
			C48.896,44.213,47.524,44.78,46.145,44.78z" style="fill:#F59FB3;"></path>
		<path d="M34.352,85.695c-0.473,0-0.954-0.068-1.43-0.21c-2.646-0.789-4.152-3.574-3.363-6.22
			c10.143-34.026,38.08-59.368,72.907-66.136c40.081-7.792,80.55,10.82,100.694,46.312c1.363,2.401,0.521,5.453-1.881,6.816
			c-2.401,1.364-5.453,0.521-6.816-1.881c-18.021-31.751-54.226-48.402-90.089-41.432c-31.16,6.056-56.155,28.73-65.231,59.176
			C38.495,84.292,36.506,85.695,34.352,85.695z" style="fill:#FFFF75;"></path>
		<path d="M39.174,100.719c-0.213,0-0.429-0.014-0.646-0.042c-2.739-0.354-4.672-2.86-4.319-5.599
			c4.825-37.381,32.943-67.332,69.969-74.528c27.59-5.363,56.271,2.981,76.721,22.319c2.006,1.897,2.095,5.062,0.197,7.068
			s-5.062,2.095-7.068,0.197c-18.112-17.127-43.512-24.518-67.941-19.769C73.298,36.74,48.399,63.26,44.127,96.359
			C43.801,98.88,41.651,100.719,39.174,100.719z" style="fill:#AFEB75;"></path>
		<path d="M191.284,86.585c-2.067,0-4.001-1.292-4.721-3.354c-11.312-32.418-45.301-51.913-79.067-45.354
			C89.818,41.313,74.35,51.294,63.942,65.981c-1.597,2.252-4.717,2.786-6.971,1.188c-2.253-1.597-2.785-4.718-1.188-6.971
			c11.902-16.794,29.59-28.208,49.806-32.138c18.918-3.675,38.506-0.382,55.157,9.276c16.489,9.564,29.011,24.693,35.259,42.6
			c0.91,2.607-0.466,5.458-3.073,6.368C192.387,86.495,191.83,86.585,191.284,86.585z" style="fill:#75D5EB;"></path>
	</g>
	<path d="M3.569,139.834C3.2,142.818,3,145.857,3,148.941c0,40.699,33.073,73.689,73.872,73.689
		c2.32,0,4.612-0.12,6.878-0.327c13.551,16.375,34.051,26.813,56.998,26.813c37.711,0,68.793-28.192,73.289-64.596
		c17.551-9.242,30.922-25.322,36.539-44.688L3.569,139.834L3.569,139.834z" style="fill:#FAF0E6;"></path>
	<g id="Layer_2_3_">
		<g>
			<polygon points="127.959,120.721 180.475,45.56 243.312,120.721" style="fill:#F0F0FF;"></polygon>
			<path d="M243.332,122.221c-0.005,0-0.013,0.001-0.02,0H127.959c-0.559,0-1.072-0.311-1.33-0.807
				c-0.258-0.496-0.22-1.094,0.101-1.552l52.516-75.161c0.268-0.383,0.698-0.62,1.165-0.64c0.471-0.015,0.916,0.179,1.215,0.537
				l62.709,75.006c0.306,0.275,0.498,0.673,0.498,1.117C244.832,121.549,244.161,122.221,243.332,122.221z M130.837,119.221h109.267
				l-59.522-71.194L130.837,119.221z" style="fill:#CCCCDE;"></path>
		</g>
		<g>
			<polygon points="33.083,120.721 80.549,52.783 137.35,120.721" style="fill:#F0F0FF;"></polygon>
			<path d="M137.369,122.221c-0.004,0-0.012,0.001-0.02,0H33.083c-0.559,0-1.072-0.311-1.33-0.807
				s-0.22-1.094,0.101-1.552l47.466-67.938c0.268-0.383,0.698-0.62,1.165-0.64c0.477-0.012,0.917,0.178,1.216,0.537l56.671,67.783
				c0.306,0.275,0.498,0.673,0.498,1.117C138.869,121.549,138.198,122.221,137.369,122.221z M35.961,119.221h98.18L80.656,55.25
				L35.961,119.221z" style="fill:#CCCCDE;"></path>
		</g>
		<g>
			<polygon points="62.751,120.721 128.744,26.27 207.71,120.721" style="fill:#F0F0FF;"></polygon>
			<path d="M207.729,122.221c-0.005,0-0.013,0.001-0.02,0H62.751c-0.559,0-1.072-0.311-1.33-0.807
				s-0.22-1.094,0.101-1.552l65.993-94.451c0.268-0.383,0.698-0.62,1.165-0.64c0.477-0.016,0.917,0.179,1.215,0.537l78.837,94.296
				c0.306,0.275,0.498,0.673,0.498,1.117C209.229,121.549,208.559,122.221,207.729,122.221z M65.629,119.221h138.872l-75.65-90.484
				L65.629,119.221z" style="fill:#CCCCDE;"></path>
		</g>
		<polygon points="128.744,26.27 169.665,103.232 128.489,70.924 
			148.241,106.384 87.316,112.388 118.115,41.481 62.751,120.721 207.159,120.043" style="opacity:0.1;fill:#6E6E96;enable-background:new    ;"></polygon>
		<polygon points="80.549,52.783 51.16,112.688 93.821,68.657 
			96.711,72.115 62.751,120.721 33.083,120.721" style="opacity:0.1;fill:#6E6E96;enable-background:new    ;"></polygon>
		<polygon points="165.493,70.216 213.854,114.264 227.245,114.264 
			180.475,45.56 243.312,120.721 207.159,120.568" style="opacity:0.1;fill:#6E6E96;enable-background:new    ;"></polygon>
	</g>
	<path d="M3.489,140.5h246.883c2.015-6.707,3.106-13.812,3.106-21.174c0-8.174-1.354-16.028-3.816-23.375
		H25.571C13.569,107.508,5.483,123.077,3.489,140.5z" style="fill:#D6F0FF;"></path>
	<rect height="3" width="224.091" style="fill:#CCCCDE;" y="94.451" x="25.571"></rect>
	<rect height="3" width="246.883" style="fill:#CCCCDE;" y="139" x="3.489"></rect>
	<rect height="3" width="25.424" style="fill:#FFFFFF;" y="106.333" x="15.576"></rect>
	<rect height="3" width="46" style="fill:#FFFFFF;" y="121" x="32.333"></rect>
	<rect height="3" width="39.334" style="opacity:0.61;fill:#FFFFFF;enable-background:new    ;" y="104.333" x="114.333"></rect>
	<rect height="3" width="12.667" style="fill:#FFFFFF;" y="111" x="227"></rect>
	<rect height="3" width="34.667" style="fill:#FFFFFF;" y="129.667" x="181.667"></rect>
	<rect height="3" width="10" style="opacity:0.48;fill:#FFFFFF;enable-background:new    ;" y="107" x="194.334"></rect>
	<rect height="3" width="15.334" style="opacity:0.48;fill:#FFFFFF;enable-background:new    ;" y="110.333" x="78.333"></rect>
	<rect height="3" width="5.333" style="opacity:0.48;fill:#FFFFFF;enable-background:new    ;" y="126.333" x="7.667"></rect>
	<path d="M251.598,102.833c-0.535-2.339-1.183-4.634-1.936-6.882
		H25.571c-2.242,2.159-4.345,4.458-6.299,6.882H251.598z" style="opacity:0.1;fill:#6E6E96;enable-background:new    ;"></path>
	<rect height="5.334" width="256" style="opacity:0.38;fill:#FFFFFF;enable-background:new    ;" y="133.5"></rect>
	<g style="display:none;" id="Layer_3_1_">
		<g style="display:inline;">
			<g>
				<path d="M85.16,142.542c0-11.563-10.059-20.936-22.467-20.936c-0.194,0-0.385,0.009-0.576,0.014
					c-3.917-6.134-11.102-10.245-19.318-10.245c-12.409,0-22.469,9.372-22.469,20.936c0,0.149,0.009,0.297,0.012,0.446
					c-6.785,3.603-11.365,10.399-11.365,18.198c0,11.562,10.059,20.934,22.468,20.934c0.705,0,1.403-0.033,2.092-0.094
					c4.122,4.65,10.358,7.617,17.335,7.617c11.471,0,20.925-8.01,22.293-18.35C80.297,157.555,85.16,150.579,85.16,142.542z" style="fill:#D7F7E4;"></path>
				<path d="M50.872,180.912c-6.895,0-13.393-2.749-17.95-7.568c-0.499,0.03-0.993,0.045-1.477,0.045
					c-13.216,0-23.968-10.063-23.968-22.434c0-7.768,4.328-14.997,11.357-19.076c0.247-12.173,10.902-22.004,23.964-22.004
					c8.091,0,15.716,3.9,20.112,10.232c13.116,0.11,23.749,10.131,23.749,22.435c0,8.109-4.626,15.515-12.127,19.506
					C72.687,172.857,62.662,180.912,50.872,180.912z M34.159,170.234l0.501,0.565c4.006,4.52,9.916,7.112,16.212,7.112
					c10.575,0,19.52-7.328,20.806-17.046l0.105-0.796l0.72-0.354c6.882-3.385,11.157-9.966,11.157-17.175
					c0-10.717-9.406-19.436-20.967-19.436c-0.115,0-0.229,0.004-0.344,0.008l-1.041,0.027l-0.456-0.714
					c-3.763-5.892-10.68-9.552-18.054-9.552c-11.562,0-20.969,8.719-20.969,19.436l0.029,1.339l-0.814,0.433
					c-6.519,3.461-10.568,9.927-10.568,16.873c0,10.716,9.406,19.434,20.968,19.434c0.637,0,1.296-0.029,1.961-0.088L34.159,170.234
					z" style="fill:#CCCCDE;"></path>
			</g>
			<path d="M62.314,120.853c-0.193,0-0.384,0.009-0.575,0.014
				c-3.141-4.918-8.383-8.534-14.573-9.775c4.898,1.229,9.023,4.208,11.558,8.175c0.165-0.004,2.416,3.886,2.583,3.886
				c10.648,0,15.601,5.738,15.601,15.66c0,6.896-2.583,11.291-8.704,14.302c-1.173,8.875-9.287,15.748-19.129,15.748
				c-5.99,0-11.34-2.544-14.877-6.534c-0.591,0.05-1.189,0.079-1.794,0.079c-10.649,0-19.013-5.048-19.013-14.968
				c0-6.683,2.99-9.973,8.432-13.938c-0.145-0.856-0.75-8.421,1.267-10.437c4.792-4.793,6.963-8.909,11.25-11.038
				c-8.414,3.025-14.385,10.627-14.385,19.535c0,0.148,0.009,0.299,0.012,0.447c-6.787,3.604-11.366,10.396-11.366,18.196
				c0,11.563,10.059,20.937,22.468,20.937c0.707,0,1.403-0.035,2.093-0.097c4.121,4.649,10.356,7.617,17.336,7.617
				c11.469,0,20.924-8.011,22.291-18.353c7.133-3.506,11.997-10.479,11.997-18.521C84.783,130.227,74.724,120.853,62.314,120.853z" style="opacity:0.1;fill:#6E6E96;enable-background:new    ;"></path>
			<g>
				<path d="M30.336,153.865c0,0,11.635,2.277,11.635,13.662c0,0,3.132,19.342-8.976,33.026h27.96
					c-0.277-0.386-24.422-32.643,2.449-51.815C47.016,158.107,30.336,153.865,30.336,153.865z" style="fill:#EDE3DA;"></path>
				<path d="M60.955,202.054h-31.29l2.207-2.494c11.477-12.972,8.648-31.607,8.619-31.794l-0.019-0.238
					c0-9.079-8.398-11.683-10.144-12.124c-0.238-0.053-0.362-0.084-0.362-0.084l0.658-2.926c0,0,0.139,0.026,0.39,0.089
					c0.935,0.203,4.231,0.841,8.802,0.841c5.724,0,14.333-1.021,22.844-5.887l1.616,2.522c-6.631,4.732-10.568,10.711-11.702,17.772
					c-2.414,15.032,8.338,30.225,9.572,31.908l1.75,2.387L60.955,202.054z M36.13,199.054h21.995
					c-3.447-5.393-10.639-18.562-8.514-31.798c0.803-5.002,2.847-9.504,6.102-13.459c-6.069,2.011-11.71,2.526-15.897,2.526
					c-0.463,0-0.915-0.006-1.352-0.018c2.655,2.276,4.974,5.786,5.007,11.104C43.731,169.146,45.9,185.741,36.13,199.054z" style="fill:#CCCCDE;"></path>
			</g>
			<g>
				<path d="M37.703,131.025" style="fill:#D57E58;"></path>
			</g>
			<path d="M56.43,153.833c0,0-17.654,22.793-4.085,46.722h8.611
				C60.955,200.555,43.04,175.518,56.43,153.833z" style="opacity:0.11;fill:#6E6E96;enable-background:new    ;"></path>
		</g>
		<g style="display:inline;">
			<g>
				<path d="M255,141.26c0-10.828-9.42-19.604-21.04-19.604c-0.183,0-0.36,0.008-0.539,0.013
					c-3.669-5.744-10.396-9.595-18.091-9.595c-11.62,0-21.041,8.777-21.041,19.604c0,0.141,0.009,0.279,0.012,0.418
					c-6.354,3.375-10.644,9.739-10.644,17.043c0,10.825,9.421,19.604,21.04,19.604c0.66,0,1.312-0.032,1.96-0.089
					c3.858,4.354,9.698,7.134,16.233,7.134c10.739,0,19.596-7.499,20.875-17.185C250.445,155.316,255,148.786,255,141.26z" style="fill:#D7F7E4;"></path>
				<path d="M222.891,177.288c-6.468,0-12.564-2.573-16.848-7.085c-0.458,0.027-0.902,0.04-1.346,0.04
					c-12.429,0-22.54-9.468-22.54-21.104c0-7.289,4.053-14.077,10.637-17.92c0.262-11.426,10.271-20.646,22.536-20.646
					c7.59,0,14.745,3.652,18.885,9.583c12.312,0.128,22.285,9.545,22.285,21.103c0,7.612-4.335,14.567-11.367,18.328
					C243.377,169.733,233.962,177.288,222.891,177.288z M207.279,167.094l0.501,0.565c3.732,4.213,9.24,6.629,15.11,6.629
					c9.857,0,18.192-6.827,19.388-15.881l0.105-0.795l0.72-0.354c6.413-3.156,10.396-9.286,10.396-15.998
					c0-9.982-8.766-18.104-19.54-18.104c-0.117,0-0.231,0.004-0.346,0.007l-1.001,0.028l-0.456-0.715
					c-3.508-5.491-9.955-8.902-16.827-8.902c-10.775,0-19.541,8.122-19.541,18.104l0.031,1.31l-0.815,0.433
					c-6.074,3.227-9.848,9.25-9.848,15.719c0,9.982,8.766,18.104,19.54,18.104c0.591,0,1.189-0.027,1.829-0.083L207.279,167.094z" style="fill:#CCCCDE;"></path>
			</g>
			<path d="M233.605,120.949c-0.183,0-0.358,0.008-0.539,0.012
				c-2.94-4.606-7.852-7.992-13.646-9.154c4.586,1.15,8.449,3.94,10.822,7.655c0.154-0.004,2.263,3.639,2.419,3.639
				c9.971,0,14.608,5.374,14.608,14.665c0,6.459-2.42,10.573-8.148,13.396c-1.1,8.31-8.698,14.743-17.914,14.743
				c-5.607,0-10.619-2.382-13.934-6.118c-0.556,0.047-1.112,0.072-1.681,0.072c-9.975,0-17.806-4.727-17.806-14.016
				c0-6.257,2.8-9.339,7.896-13.055c-0.138-0.805-0.701-7.885,1.188-9.772c4.486-4.488,6.521-8.343,10.535-10.337
				c-7.879,2.833-13.471,9.952-13.471,18.292c0,0.14,0.006,0.276,0.012,0.419c-6.355,3.372-10.646,9.736-10.646,17.04
				c0,10.825,9.42,19.604,21.041,19.604c0.661,0,1.313-0.032,1.959-0.088c3.859,4.354,9.699,7.133,16.234,7.133
				c10.74,0,19.594-7.5,20.875-17.186c6.68-3.285,11.232-9.814,11.232-17.343C254.646,129.727,245.227,120.949,233.605,120.949z" style="opacity:0.1;fill:#6E6E96;enable-background:new    ;"></path>
			<g>
				<path d="M203.66,151.861c0,0,10.896,2.133,10.896,12.797c0,0,2.934,18.109-8.406,30.927h26.184
					c-0.26-0.358-22.87-30.565,2.294-48.521C219.279,155.836,203.66,151.861,203.66,151.861z" style="fill:#EDE3DA;"></path>
				<path d="M232.334,197.085H202.82l2.207-2.494c10.744-12.145,8.077-29.519,8.049-29.692l-0.02-0.24
					c0-8.432-7.802-10.853-9.426-11.264c-0.225-0.05-0.341-0.08-0.341-0.08l0.658-2.925c0,0,0.132,0.024,0.369,0.084
					c0.876,0.19,3.955,0.786,8.226,0.786c5.348,0,13.39-0.954,21.341-5.498l1.615,2.523c-6.195,4.421-9.87,10.006-10.924,16.602
					c-2.247,14.071,7.8,28.223,8.952,29.79l1.758,2.389L232.334,197.085z M209.273,194.085h20.232
					c-3.271-5.141-9.861-17.346-7.893-29.672c0.735-4.605,2.589-8.76,5.534-12.422c-5.576,1.803-10.748,2.269-14.604,2.269
					c-0.344,0-0.681-0.004-1.009-0.011c2.417,2.149,4.489,5.412,4.522,10.291C216.305,166.203,218.305,181.631,209.273,194.085z" style="fill:#CCCCDE;"></path>
			</g>
			<g>
				<path d="M210.561,130.477" style="fill:#D57E58;"></path>
			</g>
			<path d="M228.096,151.833c0,0-16.531,21.345-3.824,43.752h8.063
				C232.333,195.585,215.557,172.139,228.096,151.833z" style="opacity:0.11;fill:#6E6E96;enable-background:new    ;"></path>
		</g>
		<g style="display:inline;">
			<g>
				<path d="M218.298,143.02c0-16.622-14.461-30.095-32.299-30.095c-0.278,0-0.554,0.012-0.828,0.019
					c-5.632-8.817-15.959-14.729-27.771-14.729c-17.838,0-32.301,13.475-32.301,30.096c0,0.215,0.014,0.429,0.018,0.646
					c-9.755,5.18-16.339,14.947-16.339,26.158c0,16.62,14.462,30.096,32.3,30.096c1.014,0,2.018-0.05,3.008-0.137
					c5.926,6.688,14.889,10.95,24.921,10.95c16.489,0,30.081-11.514,32.048-26.379C211.307,164.602,218.298,154.572,218.298,143.02z" style="fill:#D7F7E4;"></path>
				<path d="M169.007,197.523c-9.841,0-19.103-3.962-25.538-10.897c-0.817,0.056-1.619,0.084-2.391,0.084
					c-18.638,0-33.8-14.174-33.8-31.596c0-11.046,6.23-21.324,16.322-27.037c0.134-17.315,15.246-31.362,33.8-31.362
					c11.535,0,22.398,5.615,28.566,14.71c0.011,0,0.021,0,0.032,0c18.637,0,33.799,14.173,33.799,31.595
					c0,11.516-6.635,22.026-17.371,27.612C199.969,186.018,185.751,197.523,169.007,197.523z M144.708,183.513l0.501,0.565
					c5.881,6.639,14.555,10.445,23.798,10.445c15.531,0,28.669-10.78,30.561-25.075l0.105-0.796l0.72-0.354
					c10.119-4.978,16.405-14.664,16.405-25.279c0-15.768-13.816-28.595-30.799-28.595c-0.179,0-0.355,0.006-0.532,0.011
					l-1.104,0.028l-0.455-0.713c-5.531-8.658-15.688-14.037-26.507-14.037c-16.983,0-30.801,12.828-30.801,28.596
					c0,0.108,0.004,0.217,0.009,0.325l0.028,1.213l-0.815,0.433c-9.587,5.09-15.543,14.605-15.543,24.833
					c0,15.768,13.817,28.596,30.8,28.596c0.919,0,1.887-0.044,2.877-0.131L144.708,183.513z" style="fill:#CCCCDE;"></path>
			</g>
			<path d="M185.456,111.841c-0.276,0-0.552,0.012-0.827,0.019
				c-4.516-7.071-12.051-12.269-20.949-14.052c7.041,1.766,12.971,6.049,16.614,11.751c0.237-0.006,3.474,5.586,3.713,5.586
				c15.308,0,22.429,8.248,22.429,22.511c0,9.914-3.715,16.231-12.513,20.562c-1.687,12.754-13.353,22.635-27.5,22.635
				c-8.61,0-16.302-3.655-21.387-9.396c-0.851,0.071-1.71,0.114-2.58,0.114c-15.31,0-27.332-7.254-27.332-21.516
				c0-9.604,4.298-14.337,12.12-20.039c-0.209-1.234-1.077-12.104,1.82-15.002c6.89-6.89,10.011-12.808,16.174-15.868
				c-12.096,4.349-20.679,15.277-20.679,28.08c0,0.215,0.011,0.429,0.017,0.646c-9.756,5.178-16.34,14.948-16.34,26.157
				c0,16.62,14.461,30.096,32.3,30.096c1.017,0,2.017-0.049,3.008-0.135c5.925,6.688,14.89,10.948,24.922,10.948
				c16.487,0,30.078-11.515,32.046-26.379c10.254-5.043,17.244-15.069,17.244-26.623
				C217.756,125.314,203.295,111.841,185.456,111.841z" style="opacity:0.1;fill:#6E6E96;enable-background:new    ;"></path>
			<g>
				<path d="M139.484,159.296c0,0,16.727,3.272,16.727,19.644c0,0,4.504,27.805-12.904,47.479h40.195
					c-0.398-0.554-35.107-46.922,3.521-74.484C163.464,165.396,139.484,159.296,139.484,159.296z" style="fill:#EDE3DA;"></path>
				<path d="M183.502,227.918h-43.525l2.207-2.494c16.743-18.923,12.591-45.974,12.547-46.244l-0.02-0.24
					c0-13.557-12.514-17.422-15.086-18.071c-0.336-0.074-0.511-0.118-0.511-0.118l0.658-2.926c0,0,0.192,0.037,0.539,0.123
					c1.349,0.295,6.156,1.228,12.811,1.228c8.306,0,20.8-1.482,33.157-8.544l1.615,2.523c-9.684,6.91-15.435,15.653-17.092,25.988
					c-3.509,21.884,12.091,43.911,13.882,46.351l1.752,2.388L183.502,227.918z M146.496,224.918h34.144
					c-4.574-6.922-15.959-26.543-12.799-46.251c1.263-7.872,4.701-14.873,10.259-20.91c-9.523,3.547-18.48,4.418-24.978,4.418
					c-1.403,0-2.726-0.039-3.956-0.104c4.314,3.1,8.506,8.286,8.545,16.75C158.048,181.028,161.4,205.689,146.496,224.918z" style="fill:#CCCCDE;"></path>
			</g>
			<g>
				<path d="M150.077,126.465" style="fill:#D57E58;"></path>
			</g>
			<path d="M176.997,159.251c0,0-25.378,32.767-5.873,67.164h12.378
				C183.502,226.415,157.748,190.423,176.997,159.251z" style="opacity:0.11;fill:#6E6E96;enable-background:new    ;"></path>
		</g>
		<g style="display:inline;">
			<g>
				<path d="M146.461,144.131c0-13.645-11.873-24.707-26.517-24.707c-0.229,0-0.454,0.01-0.68,0.016
					c-4.624-7.239-13.102-12.092-22.8-12.092c-14.644,0-26.518,11.063-26.518,24.707c0,0.178,0.012,0.354,0.015,0.529
					c-8.01,4.251-13.414,12.271-13.414,21.477c0,13.646,11.872,24.707,26.518,24.707c0.832,0,1.655-0.041,2.469-0.107
					c4.864,5.486,12.224,8.986,20.46,8.986c13.537,0,24.695-9.45,26.309-21.654C140.721,161.85,146.461,153.617,146.461,144.131z" style="fill:#D7F7E4;"></path>
				<path d="M105.994,189.146c-8.109,0-15.747-3.249-21.078-8.938c-0.646,0.04-1.257,0.06-1.851,0.06
					c-15.449,0-28.018-11.757-28.018-26.207c0-9.119,5.111-17.604,13.401-22.354c0.2-14.291,12.691-25.858,28.016-25.858
					c9.509,0,18.468,4.606,23.595,12.076c15.396,0.059,27.902,11.793,27.902,26.207c0,9.512-5.454,18.196-14.288,22.847
					C131.576,179.672,119.825,189.146,105.994,189.146z M86.159,177.104l0.498,0.561c4.778,5.39,11.827,8.481,19.337,8.481
					c12.617,0,23.288-8.749,24.821-20.351l0.105-0.796l0.72-0.354c8.216-4.044,13.32-11.904,13.32-20.516
					c0-12.797-11.223-23.207-25.017-23.207c-0.145,0-0.287,0.005-0.429,0.009l-1.059,0.028L118,120.248
					c-4.492-7.031-12.744-11.399-21.536-11.399c-13.795,0-25.018,10.411-25.018,23.207l0.03,1.423l-0.812,0.432
					c-7.783,4.13-12.617,11.852-12.617,20.151c0,12.797,11.223,23.207,25.018,23.207c0.734,0,1.502-0.033,2.347-0.103
					L86.159,177.104z" style="fill:#CCCCDE;"></path>
			</g>
			<path d="M119.498,118.535c-0.228,0-0.452,0.009-0.679,0.015
				c-3.707-5.805-9.894-10.072-17.199-11.537c5.78,1.45,10.648,4.966,13.641,9.647c0.194-0.005,2.851,4.586,3.048,4.586
				c12.567,0,18.414,6.771,18.414,18.48c0,8.139-3.05,13.325-10.271,16.881c-1.384,10.472-10.961,18.584-22.576,18.584
				c-7.069,0-13.384-3.004-17.559-7.715c-0.698,0.061-1.404,0.096-2.118,0.096c-12.568,0-22.438-5.957-22.438-17.664
				c0-7.885,3.528-11.771,9.949-16.452c-0.171-1.015-0.884-9.938,1.496-12.316c5.655-5.657,8.218-10.515,13.277-13.028
				c-9.93,3.571-16.978,12.542-16.978,23.053c0,0.177,0.01,0.353,0.015,0.528c-8.011,4.25-13.415,12.271-13.415,21.477
				c0,13.645,11.873,24.706,26.518,24.706c0.834,0,1.655-0.04,2.469-0.108c4.864,5.488,12.224,8.988,20.461,8.988
				c13.536,0,24.693-9.451,26.311-21.656c8.418-4.141,14.158-12.371,14.158-21.854C146.016,129.598,134.143,118.535,119.498,118.535
				z" style="opacity:0.1;fill:#6E6E96;enable-background:new    ;"></path>
			<g>
				<path d="M81.757,157.494c0,0,13.731,2.688,13.731,16.128c0,0,3.697,22.823-10.595,38.978h33
					c-0.328-0.455-28.824-38.521,2.89-61.151C101.443,162.502,81.757,157.494,81.757,157.494z" style="fill:#EDE3DA;"></path>
				<path d="M117.893,214.1h-36.33l2.207-2.494c13.636-15.412,10.273-37.523,10.237-37.744l-0.019-0.239
					c0-10.926-10.094-14.049-12.179-14.576c-0.278-0.062-0.422-0.098-0.422-0.098l0.658-2.926c0,0,0.161,0.03,0.451,0.103
					c1.105,0.241,5.025,1.001,10.455,1.001c6.786,0,16.995-1.211,27.088-6.98l1.615,2.523c-7.892,5.632-12.577,12.753-13.924,21.167
					c-2.861,17.866,9.887,35.854,11.351,37.847l1.753,2.388L117.893,214.1z M88.055,211.1h26.991
					c-3.932-6.047-12.823-21.844-10.278-37.738c0.989-6.177,3.596-11.703,7.777-16.517c-7.478,2.623-14.465,3.281-19.595,3.281
					c-0.833,0-1.63-0.017-2.39-0.046c3.334,2.627,6.39,6.832,6.426,13.424C97.28,175.44,99.933,195.348,88.055,211.1z" style="fill:#CCCCDE;"></path>
			</g>
			<g>
				<path d="M90.453,130.541" style="fill:#D57E58;"></path>
			</g>
			<path d="M112.553,157.458c0,0-20.835,26.899-4.821,55.142h10.162
				C117.894,212.6,96.75,183.049,112.553,157.458z" style="opacity:0.11;fill:#6E6E96;enable-background:new    ;"></path>
		</g>
		<g style="display:inline;">
			<g>
				<path d="M253.684,168.268c0-12.345-10.74-22.35-23.988-22.35c-0.203,0-0.407,0.008-0.611,0.014
					c-4.186-6.549-11.854-10.938-20.625-10.938c-13.248,0-23.986,10.007-23.986,22.35c0,0.161,0.012,0.318,0.014,0.479
					c-7.244,3.848-12.135,11.104-12.135,19.43c0,12.347,10.737,22.353,23.986,22.353c0.753,0,1.497-0.039,2.23-0.103
					c4.4,4.967,11.061,8.133,18.511,8.133c12.245,0,22.339-8.551,23.799-19.591C248.49,184.295,253.684,176.85,253.684,168.268z" style="fill:#D7F7E4;"></path>
				<path d="M217.079,209.136c-7.354,0-14.279-2.937-19.126-8.083c-0.561,0.035-1.094,0.053-1.615,0.053
					c-14.053,0-25.486-10.7-25.486-23.853c0-8.272,4.623-15.974,12.125-20.308c0.229-12.968,11.571-23.451,25.482-23.451
					c8.621,0,16.747,4.165,21.42,10.925c13.971,0.092,25.305,10.755,25.305,23.849c0,8.633-4.937,16.52-12.938,20.762
					C240.307,200.548,229.635,209.136,217.079,209.136z M199.19,197.943l0.501,0.564c4.294,4.848,10.632,7.628,17.388,7.628
					c11.341,0,20.933-7.862,22.312-18.287l0.105-0.795l0.719-0.354c7.383-3.637,11.969-10.699,11.969-18.432
					c0-11.496-10.088-20.85-22.488-20.85c-0.147,0-0.295,0.005-0.442,0.01l-0.976,0.027l-0.457-0.716
					c-4.039-6.319-11.458-10.245-19.361-10.245c-12.399,0-22.486,9.354-22.486,20.85l0.024,1.375l-0.807,0.43
					c-6.994,3.714-11.339,10.651-11.339,18.104c0,11.498,10.087,20.853,22.486,20.853c0.66,0,1.348-0.031,2.102-0.097
					L199.19,197.943z" style="fill:#CCCCDE;"></path>
			</g>
			<path d="M229.292,145.111c-0.206,0-0.409,0.011-0.614,0.016
				c-3.354-5.251-8.949-9.111-15.558-10.438c5.229,1.312,9.633,4.492,12.339,8.728c0.175-0.004,2.579,4.149,2.757,4.149
				c11.368,0,16.655,6.123,16.655,16.718c0,7.362-2.757,12.055-9.291,15.271c-1.252,9.473-9.915,16.813-20.423,16.813
				c-6.396,0-12.106-2.72-15.884-6.979c-0.631,0.055-1.271,0.086-1.916,0.086c-11.368,0-20.299-5.389-20.299-15.979
				c0-7.135,3.19-10.646,9.002-14.885c-0.156-0.918-0.803-8.987,1.353-11.141c5.116-5.117,7.435-9.513,12.011-11.785
				c-8.98,3.229-15.357,11.347-15.357,20.854c0,0.159,0.012,0.317,0.016,0.479c-7.246,3.846-12.137,11.103-12.137,19.428
				c0,12.343,10.738,22.35,23.988,22.35c0.754,0,1.496-0.035,2.231-0.1c4.401,4.966,11.06,8.132,18.509,8.132
				c12.245,0,22.338-8.552,23.799-19.591c7.615-3.744,12.811-11.192,12.811-19.771C253.279,155.118,242.541,145.111,229.292,145.111
				z" style="opacity:0.1;fill:#6E6E96;enable-background:new    ;"></path>
			<g>
				<path d="M195.15,180.355c0,0,12.422,2.431,12.422,14.588c0,0,3.345,20.646-9.584,35.259h29.853
					c-0.296-0.41-26.073-34.847,2.615-55.317C212.96,184.887,195.15,180.355,195.15,180.355z" style="fill:#EDE3DA;"></path>
				<path d="M227.841,231.702h-33.183l2.207-2.494c12.288-13.89,9.258-33.826,9.227-34.026l-0.02-0.238
					c0-9.771-9.034-12.57-10.906-13.045c-0.254-0.056-0.386-0.089-0.386-0.089l0.658-2.926c0,0,0.148,0.028,0.414,0.095
					c0.999,0.218,4.531,0.9,9.425,0.9c6.122,0,15.33-1.092,24.435-6.296l1.615,2.522c-7.106,5.071-11.325,11.482-12.537,19.054
					c-2.579,16.108,8.921,32.332,10.241,34.129l1.754,2.389L227.841,231.702z M201.134,228.702h23.868
					c-3.634-5.641-11.454-19.779-9.175-34.017c0.872-5.444,3.125-10.332,6.725-14.611c-6.594,2.236-12.737,2.805-17.274,2.805
					c-0.6,0-1.179-0.009-1.737-0.026c2.908,2.41,5.497,6.182,5.532,11.973C209.345,196.638,211.695,214.473,201.134,228.702z" style="fill:#CCCCDE;"></path>
			</g>
			<g>
				<path d="M203.018,155.975" style="fill:#D57E58;"></path>
			</g>
			<path d="M223.01,180.322c0,0-18.847,24.334-4.361,49.88h9.192
				C227.841,230.202,208.714,203.473,223.01,180.322z" style="opacity:0.11;fill:#6E6E96;enable-background:new    ;"></path>
		</g>
		<g style="display:inline;">
			<g>
				<path d="M89.418,166.416c0-13.111-11.408-23.738-25.479-23.738c-0.22,0-0.436,0.008-0.653,0.014
					c-4.443-6.954-12.589-11.615-21.907-11.615c-14.071,0-25.48,10.629-25.48,23.738c0,0.17,0.011,0.336,0.015,0.507
					c-7.695,4.086-12.889,11.795-12.889,20.639c0,13.108,11.407,23.738,25.479,23.738c0.8,0,1.59-0.041,2.372-0.105
					c4.674,5.273,11.745,8.64,19.659,8.64c13.007,0,23.729-9.082,25.279-20.81C83.903,183.439,89.418,175.531,89.418,166.416z" style="fill:#D7F7E4;"></path>
				<path d="M50.535,209.732c-7.797,0-15.143-3.122-20.277-8.591c-0.617,0.038-1.196,0.057-1.754,0.057
					c-14.876,0-26.979-11.322-26.979-25.238c0-8.772,4.911-16.937,12.877-21.517c0.213-13.746,12.233-24.867,26.977-24.867
					c9.146,0,17.763,4.425,22.703,11.602c14.81,0.073,26.836,11.367,26.836,25.238c0,9.149-5.242,17.508-13.734,21.992
					C75.152,200.621,63.844,209.732,50.535,209.732z M31.501,198.036l0.498,0.562c4.582,5.17,11.338,8.135,18.537,8.135
					c12.094,0,22.322-8.386,23.792-19.506l0.105-0.795l0.719-0.354c7.875-3.878,12.767-11.412,12.767-19.661
					c0-12.263-10.757-22.238-23.979-22.238c-0.162,0-0.321,0.005-0.48,0.01l-0.98,0.026l-0.457-0.715
					c-4.305-6.737-12.215-10.923-20.643-10.923c-13.223,0-23.98,9.976-23.98,22.238l0.036,1.397l-0.817,0.435
					c-7.459,3.96-12.093,11.36-12.093,19.313c0,12.263,10.757,22.238,23.979,22.238c0.693,0,1.429-0.033,2.249-0.101L31.501,198.036
					z" style="fill:#CCCCDE;"></path>
			</g>
			<path d="M63.511,141.822c-0.219,0-0.435,0.01-0.652,0.015
				c-3.562-5.577-9.506-9.678-16.525-11.085c5.553,1.393,10.231,4.771,13.106,9.27c0.186-0.004,2.739,4.406,2.928,4.406
				c12.076,0,17.692,6.506,17.692,17.758c0,7.82-2.929,12.806-9.87,16.222c-1.33,10.063-10.531,17.854-21.693,17.854
				c-6.792,0-12.859-2.886-16.871-7.412c-0.67,0.058-1.348,0.092-2.035,0.092c-12.076,0-21.561-5.723-21.561-16.975
				c0-7.574,3.391-11.308,9.561-15.807c-0.165-0.975-0.85-9.549,1.437-11.836c5.435-5.434,7.896-10.103,12.758-12.516
				c-9.541,3.43-16.313,12.051-16.313,22.147c0,0.17,0.01,0.338,0.014,0.508c-7.696,4.084-12.889,11.792-12.889,20.638
				c0,13.107,11.407,23.736,25.479,23.736c0.801,0,1.591-0.039,2.373-0.104c4.674,5.272,11.745,8.638,19.659,8.638
				c13.006,0,23.728-9.081,25.278-20.808c8.089-3.979,13.604-11.892,13.604-21.002C88.991,152.449,77.583,141.822,63.511,141.822z" style="opacity:0.1;fill:#6E6E96;enable-background:new    ;"></path>
			<g>
				<path d="M27.248,179.256c0,0,13.193,2.583,13.193,15.496c0,0,3.553,21.932-10.179,37.45h31.707
					c-0.314-0.437-27.694-37.015,2.777-58.759C46.163,184.066,27.248,179.256,27.248,179.256z" style="fill:#EDE3DA;"></path>
				<path d="M61.969,233.702H26.932l2.207-2.494c13.083-14.784,9.855-36.005,9.821-36.217l-0.019-0.239
					c0-10.454-9.661-13.443-11.658-13.948c-0.266-0.059-0.405-0.094-0.405-0.094l0.658-2.926c0,0,0.155,0.029,0.434,0.099
					c1.061,0.231,4.819,0.96,10.029,0.96c6.514,0,16.314-1.163,26.002-6.701l1.616,2.522c-7.567,5.4-12.06,12.228-13.353,20.293
					c-2.748,17.136,9.488,34.414,10.893,36.328l1.751,2.388L61.969,233.702z M33.418,230.702h25.708
					c-3.81-5.884-12.263-21.012-9.824-36.22c0.941-5.872,3.401-11.134,7.34-15.726c-7.116,2.464-13.756,3.086-18.643,3.086
					c-0.734,0-1.44-0.014-2.115-0.038c3.159,2.54,6.021,6.566,6.057,12.829C42.226,196.521,44.755,215.578,33.418,230.702z" style="fill:#CCCCDE;"></path>
			</g>
			<g>
				<path d="M35.603,153.357" style="fill:#D57E58;"></path>
			</g>
			<path d="M56.838,179.221c0,0-20.02,25.848-4.633,52.981h9.764
				C61.969,232.202,41.654,203.811,56.838,179.221z" style="opacity:0.11;fill:#6E6E96;enable-background:new    ;"></path>
		</g>
	</g>
</g>
<g id="Layer_2_1_">
	<g>
		<g>
			<path d="M76.036,206.01H60.574c-6.075,0-11.044-4.971-11.044-11.045v-16.199
				c0-6.072,4.753-12.496,10.563-14.271l15.942-4.872" style="fill:#AFE0CF;"></path>
			<path d="M76.036,207.51H60.574c-6.917,0-12.544-5.628-12.544-12.545v-16.199
				c0-6.702,5.215-13.747,11.625-15.705l15.942-4.872l0.877,2.869l-15.942,4.872c-5.15,1.573-9.501,7.451-9.501,12.836v16.199
				c0,5.263,4.282,9.545,9.544,9.545h15.462V207.51z" style="fill:#6E6E96;"></path>
		</g>
		<g>
			<path d="M178.859,206.01h15.464c6.073,0,11.044-4.971,11.044-11.045v-16.199
				c0-6.072-4.753-12.496-10.562-14.271l-15.941-4.872" style="fill:#AFE0CF;"></path>
			<path d="M194.323,207.51h-15.464v-3h15.464c5.263,0,9.544-4.282,9.544-9.545v-16.199
				c0-5.385-4.351-11.263-9.501-12.836l-15.941-4.872l0.877-2.869l15.941,4.872c6.409,1.958,11.624,9.003,11.624,15.705v16.199
				C206.867,201.882,201.24,207.51,194.323,207.51z" style="fill:#6E6E96;"></path>
		</g>
		<path d="M178.861,187.906l-0.002,18.104h15.464
			c6.073,0,11.044-4.971,11.044-11.045v-7.059c-6.29,7.154-15.354,2.623-22.629,3.129
			C180.309,190.669,178.734,190.275,178.861,187.906z" style="opacity:0.15;fill:#6E6E96;enable-background:new    ;"></path>
		<path d="M49.529,194.965c0,6.074,4.97,11.045,11.044,11.045h15.462
			v-18.104c0.18,1.111,0.18,2.623-0.576,3.378c-8.309,2.267-20.395,3.021-25.93-3.378V194.965L49.529,194.965z" style="opacity:0.15;fill:#6E6E96;enable-background:new    ;"></path>
		<g>
			<path d="M188.199,206.01c0,14.174-11.598,25.771-25.77,25.771H92.48
				c-14.173,0-25.771-11.599-25.771-25.771v-92.566c0-14.173,11.599-25.77,25.771-25.77h69.952c14.174,0,25.769,11.597,25.769,25.77
				L188.199,206.01L188.199,206.01z" style="fill:#AFE0CF;"></path>
			<path d="M162.43,233.28H92.48c-15.037,0-27.271-12.233-27.271-27.271v-92.566
				c0-15.037,12.234-27.27,27.271-27.27h69.952c15.036,0,27.269,12.233,27.269,27.27v92.566
				C189.699,221.047,177.466,233.28,162.43,233.28z M92.48,89.174c-13.383,0-24.271,10.888-24.271,24.27v92.566
				c0,13.383,10.888,24.271,24.271,24.271h69.95c13.382,0,24.27-10.888,24.27-24.271l0.001-92.566
				c0-13.382-10.887-24.27-24.269-24.27H92.48z" style="fill:#6E6E96;"></path>
		</g>
		<path d="M66.709,116.682c0,0,3.833,20.395,23.625,20.395
			c19.791,0,75.708,0,75.708,0s22.157-6.42,22.157-20.395H66.709z" style="opacity:0.15;fill:#6E6E96;enable-background:new    ;"></path>
		<path d="M148.216,171.225
			c10.575,42.301-17.774,44.275-33.293,44.275c-18.333,0-49.566,1.821-48.213-40.248v30.758c0,14.172,11.599,25.771,25.771,25.771
			h69.951c14.174,0,25.77-11.597,25.77-25.771v-55.699C183.631,244.746,143.525,152.463,148.216,171.225z" style="opacity:0.15;fill:#6E6E96;enable-background:new    ;"></path>
		<g>
			<path d="M198.504,237.163c0,6.231-5.1,11.33-11.33,11.33c0,0-3.253-0.001-8.673-0.155
				c-3.288-0.295-6.586-0.559-9.894-0.775c-26.756-1.418-53.194-1.418-79.95-0.017c-3.308,0.215-6.606,0.478-9.894,0.771
				c-5.42,0.171-8.673,0.178-8.673,0.178c-6.231,0-11.331-5.1-11.331-11.33v-8.311c0-6.23,5.099-11.33,11.331-11.33
				c0,0,3.252,0.004,8.673,0.193c32.873,4.256,66.864,4.256,99.737,0c5.42-0.189,8.673-0.193,8.673-0.193
				c6.231,0,11.33,5.1,11.33,11.33L198.504,237.163L198.504,237.163z" style="fill:#FFDFBA;"></path>
			<path d="M70.093,249.994H70.09c-7.075,0-12.831-5.756-12.831-12.83v-8.311
				c0-7.074,5.756-12.83,12.831-12.83c0.035,0,3.341,0.006,8.726,0.194l0.14,0.012c32.592,4.219,66.76,4.219,99.352,0l0.14-0.012
				c5.383-0.188,8.691-0.194,8.724-0.194c7.076,0,12.832,5.756,12.832,12.83v8.31c0.001,3.414-1.337,6.633-3.768,9.062
				c-2.429,2.43-5.647,3.768-9.062,3.768c-0.033,0-3.337-0.003-8.716-0.156c-3.616-0.321-6.841-0.574-9.948-0.777
				c-13.297-0.705-26.76-1.062-39.995-1.062c-13.132,0-26.516,0.353-39.779,1.047c-3.065,0.199-6.29,0.45-9.839,0.767
				C73.43,249.985,70.126,249.994,70.093,249.994z M70.088,219.023c-5.419,0-9.829,4.41-9.829,9.83v8.311
				c0,5.419,4.409,9.828,9.828,9.83c0.054,0,3.315-0.01,8.629-0.177c3.488-0.313,6.736-0.566,9.844-0.769
				c13.334-0.698,26.771-1.052,39.955-1.052c13.288,0,26.805,0.359,40.172,1.067c3.151,0.207,6.399,0.461,9.948,0.779
				c5.241,0.146,8.507,0.149,8.539,0.149c5.42,0,9.83-4.41,9.83-9.83l-0.001-8.31c0-5.42-4.41-9.83-9.83-9.83
				c-0.03,0-3.265,0.006-8.55,0.19c-32.805,4.24-67.18,4.24-99.982,0C73.354,219.029,70.12,219.023,70.088,219.023z" style="fill:#6E6E96;"></path>
		</g>
		<path d="M64.834,236.066c0,0-3.584-13.773,14.663-10.485s39.454,3.288,54.743,3.288
			s59.18-8.455,62.386,3.759c0,0,4.394-20.144-25.38-13.009c-27.871,6.681-78.921-0.395-100.379-0.85
			C70.867,218.77,52.214,219.034,64.834,236.066z" style="fill:#FFF1E0;"></path>
		<g>
			<path d="M101.062,244.256c0,2.75-2.25,5-5,5h-0.728c-2.75,0-5-2.25-5-5v-115.4
				c0-2.75,2.146-4.322,4.768-3.495l1.191,0.376c2.623,0.828,4.768,3.755,4.768,6.505L101.062,244.256L101.062,244.256z" style="fill:#D9B8A7;"></path>
			<path d="M96.062,250.756h-0.728c-3.584,0-6.5-2.916-6.5-6.5v-115.4c0-3.022,2.062-5.215,4.903-5.215
				c0.595,0,1.207,0.098,1.817,0.29l1.191,0.376c3.262,1.029,5.816,4.516,5.816,7.936v112.014c0,1.73-0.677,3.361-1.907,4.592
				S97.793,250.756,96.062,250.756z M93.737,126.64c-1.174,0-1.903,0.849-1.903,2.215v115.4c0,1.93,1.57,3.5,3.5,3.5h0.728
				c1.93,0,3.5-1.57,3.5-3.5l-0.001-112.014c0-2.078-1.738-4.449-3.72-5.075l-1.191-0.375
				C94.333,126.691,94.025,126.64,93.737,126.64z" style="fill:#6E6E96;"></path>
		</g>
		<g>
			<path d="M166.042,245.867c0,2.75-2.248,4.917-4.997,4.816l-0.579-0.021
				c-2.749-0.102-4.997-2.434-4.997-5.184V133.604c0-2.75,2.143-5.687,4.762-6.524l1.051-0.336c2.619-0.839,4.762,0.725,4.762,3.475
				L166.042,245.867L166.042,245.867z" style="fill:#D9B8A7;"></path>
			<path d="M161.229,252.187l-0.818-0.025c-3.552-0.131-6.441-3.129-6.441-6.683V133.604
				c0-3.418,2.55-6.912,5.805-7.953l1.051-0.336c0.617-0.198,1.235-0.298,1.837-0.298c2.829,0,4.882,2.188,4.882,5.201v115.649
				C167.542,249.352,164.709,252.187,161.229,252.187z M162.661,128.017c-0.29,0-0.601,0.052-0.922,0.155l-1.052,0.336
				c-1.981,0.634-3.719,3.015-3.719,5.096v111.875c0,1.959,1.594,3.612,3.553,3.685l0.707,0.023c1.858,0,3.313-1.458,3.313-3.319
				l0.001-115.649C164.543,128.86,163.822,128.017,162.661,128.017z" style="fill:#6E6E96;"></path>
		</g>
		<g>
			<path d="M110.452,130.38H92.48c-14.173,0-25.771-9.609-25.771-21.353
				c0-11.745,11.599-21.353,25.771-21.353h69.952c14.174,0,25.769,9.608,25.769,21.353c0,11.744-11.599,21.353-25.769,21.353
				h-15.723" style="fill:#AFE0CF;"></path>
			<path d="M162.432,131.88h-15.723v-3h15.723c13.382,0,24.269-8.906,24.269-19.853
				s-10.887-19.853-24.269-19.853H92.48c-13.383,0-24.271,8.906-24.271,19.853S79.097,128.88,92.48,128.88h17.972v3H92.48
				c-15.037,0-27.271-10.252-27.271-22.853S77.443,86.174,92.48,86.174h69.952c15.036,0,27.269,10.252,27.269,22.853
				S177.468,131.88,162.432,131.88z" style="fill:#6E6E96;"></path>
		</g>
		<path d="M112.644,121.591c-20.27,0-45.934-6.509-43.49-17.848
			c-8.379,10.801,9.979,26.636,23.327,26.636h69.951c14.174,0,25.77-9.609,25.77-21.353c0-13.7-14.307-18.472-16.062-21.353
			C188.199,120.735,157.588,121.591,112.644,121.591z" style="opacity:0.15;fill:#6E6E96;enable-background:new    ;"></path>
		<path d="M58.76,228.854c0,0-2.546,19.107,62.444,7.052
			c40.737-7.558,44.837,14.963,77.299,1.259c0,0,3.207,11.33-13.345,11.33c-16.553,0-26.152-1.949-64.945-1.949
			C81.421,246.544,55.739,259.068,58.76,228.854z" style="opacity:0.15;fill:#6E6E96;enable-background:new    ;"></path>
		<g>
			<path d="M145.628,168.173v23.164c0,4.155-3.399,7.554-7.554,7.554h-20.647
				c-4.154,0-7.554-3.397-7.554-7.554v-23.164" style="fill:#AFE0CF;"></path>
			<path d="M138.074,200.391h-20.647c-4.992,0-9.054-4.062-9.054-9.054v-17.614h38.755v17.614
				C147.128,196.329,143.066,200.391,138.074,200.391z M111.373,176.723v14.614c0,3.338,2.716,6.054,6.054,6.054h20.647
				c3.338,0,6.054-2.716,6.054-6.054v-14.614H111.373z" style="fill:#6E6E96;"></path>
		</g>
		<g style="opacity:0.15;">
			<path d="M138.6,194.466h-20.646c-4.155,0-7.554-3.399-7.554-7.554v7.73c0,4.154,3.399,7.555,7.554,7.555
				H138.6c4.154,0,7.553-3.399,7.553-7.555v-7.73C146.152,191.066,142.754,194.466,138.6,194.466z" style="fill:#6E6E96;"></path>
		</g>
		<g>
			<path d="M105.593,174.109c0,1.65-1.35,3-3,3h-15.15c-1.65,0-3-1.35-3-3V163.87c0-1.65,1.35-3,3-3h15.15
				c1.65,0,3,1.35,3,3V174.109z" style="fill:#F0F0FF;"></path>
			<path d="M102.593,178.609h-15.15c-2.481,0-4.5-2.019-4.5-4.5V163.87c0-2.481,2.019-4.5,4.5-4.5h15.15
				c2.481,0,4.5,2.019,4.5,4.5v10.239C107.093,176.591,105.074,178.609,102.593,178.609z M87.443,162.37c-0.827,0-1.5,0.673-1.5,1.5
				v10.239c0,0.827,0.673,1.5,1.5,1.5h15.15c0.827,0,1.5-0.673,1.5-1.5V163.87c0-0.827-0.673-1.5-1.5-1.5H87.443z" style="fill:#6E6E96;"></path>
		</g>
		<g>
			<path d="M171.688,174.109c0,1.65-1.35,3-3,3h-15.149c-1.649,0-3-1.35-3-3V163.87c0-1.65,1.351-3,3-3
				h15.149c1.65,0,3,1.35,3,3V174.109z" style="fill:#F0F0FF;"></path>
			<path d="M168.688,178.609h-15.149c-2.481,0-4.5-2.019-4.5-4.5V163.87c0-2.481,2.019-4.5,4.5-4.5h15.149
				c2.481,0,4.5,2.019,4.5,4.5v10.239C173.188,176.591,171.169,178.609,168.688,178.609z M153.538,162.37
				c-0.827,0-1.5,0.673-1.5,1.5v10.239c0,0.827,0.673,1.5,1.5,1.5h15.149c0.827,0,1.5-0.673,1.5-1.5V163.87
				c0-0.827-0.673-1.5-1.5-1.5H153.538z" style="fill:#6E6E96;"></path>
		</g>
		<g>
			<rect height="7.545" width="10.573" style="fill:#D9B8A7;" y="165.402" x="155.469"></rect>
			<path d="M166.042,174.447h-10.573c-0.828,0-1.5-0.672-1.5-1.5v-7.545c0-0.828,0.672-1.5,1.5-1.5h10.573
				c0.828,0,1.5,0.672,1.5,1.5v7.545C167.542,173.775,166.87,174.447,166.042,174.447z M156.969,171.447h7.573v-4.545h-7.573
				V171.447z" style="fill:#6E6E96;"></path>
		</g>
		<g>
			<rect height="7.545" width="10.573" style="fill:#D9B8A7;" y="165.402" x="89.751"></rect>
			<path d="M100.324,174.447H89.751c-0.829,0-1.5-0.672-1.5-1.5v-7.545c0-0.828,0.671-1.5,1.5-1.5h10.573
				c0.829,0,1.5,0.672,1.5,1.5v7.545C101.824,173.775,101.153,174.447,100.324,174.447z M91.251,171.447h7.573v-4.545h-7.573
				V171.447z" style="fill:#6E6E96;"></path>
		</g>
		<rect height="6.043" width="12.087" style="opacity:0.15;fill:#6E6E96;enable-background:new    ;" y="131.033" x="88.975"></rect>
		<rect height="6.696" width="10.573" style="opacity:0.15;fill:#6E6E96;enable-background:new    ;" y="130.38" x="155.469"></rect>
		<rect height="28.371" width="10.728" style="opacity:0.15;fill:#6E6E96;enable-background:new    ;" y="219.034" x="90.334"></rect>
		<rect height="30.877" width="10.573" style="opacity:0.15;fill:#6E6E96;enable-background:new    ;" y="219.99" x="155.469"></rect>
		<rect height="5.666" width="10.728" style="opacity:0.15;fill:#6E6E96;enable-background:new    ;" y="177.109" x="90.334"></rect>
		<rect height="5.666" width="10.573" style="opacity:0.15;fill:#6E6E96;enable-background:new    ;" y="177.109" x="155.469"></rect>
		<rect height="4.506" width="33.146" style="opacity:0.4;fill:#FFFFFF;enable-background:new    ;" y="176.382" x="110.972"></rect>
		<g>
			<rect height="7.932" width="18.507" style="fill:#F0F0FF;" y="102.707" x="117.302"></rect>
			<path d="M135.809,112.139h-18.507c-0.829,0-1.5-0.671-1.5-1.5v-7.932c0-0.829,0.671-1.5,1.5-1.5h18.507
				c0.828,0,1.5,0.671,1.5,1.5v7.932C137.309,111.468,136.637,112.139,135.809,112.139z M118.802,109.139h15.507v-4.932h-15.507
				V109.139z" style="fill:#6E6E96;"></path>
		</g>
	</g>
	<g>
		<path d="M220.498,35.299c0-0.078,0.006-0.154,0.006-0.232c0-8.172-7.209-14.797-16.104-14.797
			c-7.654,0-14.062,4.912-15.693,11.493c-0.252-0.019-0.506-0.031-0.762-0.031c-5.29,0-9.578,3.941-9.578,8.803
			c0,1.042,0.199,2.041,0.561,2.969c-1.482,1.928-2.359,4.282-2.359,6.824c0,6.443,5.607,11.68,12.584,11.82v0.006h24.742
			c8.479,0,15.354-6.317,15.354-14.112C229.248,42.419,225.672,37.568,220.498,35.299z" style="fill:#FFFFFF;"></path>
		<path d="M213.895,63.654h-24.742c-0.06,0-0.118-0.003-0.177-0.01c-7.683-0.227-13.907-6.172-13.907-13.316
			c0-2.523,0.755-4.952,2.19-7.074c-0.26-0.884-0.392-1.796-0.392-2.719c0-5.57,4.777-10.122,10.721-10.298
			c2.259-6.81,8.997-11.467,16.812-11.467c9.445,0,17.177,6.922,17.587,15.574c5.354,2.722,8.761,8,8.761,13.698
			C230.748,56.651,223.188,63.654,213.895,63.654z M189.291,60.654h24.604c7.639,0,13.854-5.658,13.854-12.612
			c0-4.814-3.082-9.277-7.853-11.37c-0.545-0.239-0.897-0.778-0.897-1.374l0.004-0.173c0.002-7.391-6.549-13.356-14.602-13.356
			c-6.762,0-12.75,4.354-14.237,10.354c-0.177,0.71-0.851,1.182-1.566,1.135c-0.215-0.016-0.433-0.027-0.651-0.027
			c-4.454,0-8.078,3.276-8.078,7.303c0,0.828,0.154,1.644,0.458,2.424c0.19,0.489,0.111,1.042-0.208,1.458
			c-1.341,1.743-2.049,3.787-2.049,5.91c0,5.567,4.985,10.197,11.114,10.32C189.219,60.649,189.255,60.651,189.291,60.654z" style="fill:#CCCCDE;"></path>
	</g>
	<g id="Layer_7_1_">
		<path d="M49.398,59.621c0-0.063,0.006-0.13,0.006-0.195c0-6.913-6.1-12.519-13.621-12.519
			c-6.477,0-11.895,4.154-13.276,9.722c-0.212-0.015-0.427-0.024-0.643-0.024c-4.476,0-8.103,3.334-8.103,7.444
			c0,0.882,0.168,1.728,0.475,2.513c-1.258,1.631-1.997,3.621-1.997,5.771c0,5.45,4.743,9.88,10.646,9.999v0.005h20.928
			c7.174,0,12.99-5.345,12.99-11.938C56.803,65.646,53.775,61.541,49.398,59.621z" style="fill:#FFFFFF;"></path>
		<path d="M43.813,83.837H22.885c-0.054,0-0.107-0.003-0.16-0.008c-6.621-0.199-11.986-5.33-11.986-11.496
			c0-2.148,0.631-4.214,1.833-6.022c-0.207-0.736-0.311-1.494-0.311-2.262c0-4.784,4.054-8.703,9.13-8.933
			c1.991-5.772,7.738-9.708,14.392-9.708c8.064,0,14.673,5.883,15.099,13.262c4.539,2.36,7.421,6.868,7.421,11.729
			C58.303,77.809,51.803,83.837,43.813,83.837z M23.006,80.837h20.807c6.335,0,11.49-4.683,11.49-10.438
			c0-3.979-2.554-7.67-6.507-9.404c-0.545-0.239-0.897-0.778-0.897-1.374c0-0.022,0.003-0.141,0.004-0.163
			c0.001-6.108-5.436-11.051-12.119-11.051c-5.615,0-10.587,3.61-11.82,8.583c-0.175,0.707-0.829,1.19-1.56,1.135
			c-0.178-0.012-0.358-0.021-0.54-0.021c-3.641,0-6.603,2.667-6.603,5.944c0,0.674,0.125,1.336,0.372,1.967
			c0.192,0.49,0.112,1.045-0.209,1.462c-1.103,1.429-1.685,3.108-1.685,4.855c0,4.584,4.117,8.397,9.176,8.5
			C22.946,80.833,22.976,80.834,23.006,80.837z" style="fill:#CCCCDE;"></path>
	</g>
</g>
</svg>
